<?xml version="1.0" encoding="UTF-8" standalone="no"?>
<!-- Created with Inkscape (http://www.inkscape.org/) -->

<svg
   xmlns="http://www.w3.org/2000/svg"
   width="56mm"
   height="72mm"
   viewBox="0 0 56 72"
   version="1.1"
   id="svg8">
  <defs
     id="defs2">
    <linearGradient
       id="linearGradient2291">
      <stop
         style="stop-color:#588e90;stop-opacity:1;"
         offset="0"
         id="stop2289" />
    </linearGradient>
    <linearGradient
       id="linearGradient849">
      <stop
         style="stop-color:#588e90;stop-opacity:1;"
         offset="0"
         id="stop845" />
      <stop
         style="stop-color:#588e90;stop-opacity:0;"
         offset="1"
         id="stop847" />
    </linearGradient>
  </defs>
  <g
     id="layer1"
     transform="translate(0,-225)">
    <g
       id="g21"
       transform="translate(-6.8035716,152.3244)">
      <path
         id="path39"
         d="m 34.878914,116.46818 c -0.0868,-0.0881 -0.15789,-3.76404 -0.15789,-8.16877 0,-7.86498 0.008,-8.0086 0.47664,-8.0086 0.39728,0 3.34679,1.62697 12.96426,7.15116 0.57013,0.32749 1.00658,0.75648 1.00658,0.98939 0,0.28845 -2.03577,1.57338 -6.81919,4.30411 -3.75056,2.14109 -6.93019,3.89289 -7.06585,3.89289 -0.13566,0 -0.31771,-0.0721 -0.40455,-0.16018 z m 16.30277,-18.853589 c -0.52106,-0.285823 -3.29214,-1.890047 -6.15795,-3.564944 -5.96053,-3.483574 -8.69179,-4.740962 -12.20446,-5.618566 -4.92442,-1.230312 -8.97606,-1.390789 -13.3582,-0.52909 -1.03304,0.203136 -1.91849,0.328522 -1.96767,0.278635 -0.0492,-0.04989 1.38223,-0.953061 3.1809,-2.007055 1.79867,-1.053993 5.82823,-3.416318 8.95457,-5.249611 3.12634,-1.833292 6.40299,-3.702272 7.28144,-4.153288 1.5773,-0.809817 1.609,-0.815324 2.54534,-0.442216 0.52148,0.207798 2.78699,1.456298 5.03445,2.774443 2.24746,1.318147 6.64421,3.894921 9.77055,5.726166 5.086539,2.979425 5.731049,3.426701 6.129289,4.253557 0.74296,1.542598 0.37257,2.224763 -3.132029,5.768376 -2.85599,2.887775 -3.12299,3.09568 -4.0921,3.186312 -0.75015,0.07015 -1.29866,-0.04671 -1.98413,-0.422719 z"
         style="fill:#1b6dc1;fill-opacity:1;stroke-width:0.23854497" />
      <path
         id="path41"
         d="m 29.377699,136.77593 c -12.22504,-7.12079 -12.98067,-7.56804 -13.47701,-7.97686 -0.45339,-0.37343 -0.43816,-0.38348 0.35527,-0.23449 0.45592,0.0856 1.6283,0.30582 2.60528,0.48937 2.3754,0.44626 7.94639,0.4421 10.48981,-0.008 4.70768,-0.83278 7.23346,-1.91329 15.034249,-6.43152 3.16116,-1.83095 6.11212,-3.48352 6.55769,-3.67238 1.53758,-0.6517 2.09325,-0.33151 5.60237,3.22819 3.32349,3.3714 3.64504,3.88726 3.35817,5.38742 -0.20424,1.0681 -1.05817,1.72083 -6.10778,4.66868 -14.86244,8.67634 -15.3559,8.95057 -16.10607,8.95057 -0.54769,0 -2.838519,-1.21298 -8.311979,-4.40114 z"
         style="fill:#1d951a;fill-opacity:1;stroke-width:0.23854497"/>
      <path
         id="path43"
         d="m 21.455187,127.69772 c -1.08716,-0.10303 -2.73915,-0.36322 -3.67108,-0.57821 -1.98274,-0.45739 -6.39405,-2.1606 -6.76256,-2.61103 -0.35066,-0.42861 0.62303,-5.04861 1.74927,-8.29996 1.0749,-3.10313 2.14978,-5.30582 3.87763,-7.94617 1.38516,-2.11671 4.85634,-6.0071 5.35979,-6.0071 0.19058,0 0.33564,0.66795 0.43046,1.98213 0.17221,2.38678 1.28979,6.52974 2.40383,8.9112 1.89121,4.04278 5.35342,8.30229 8.95133,11.01266 0.87933,0.66242 1.54076,1.29962 1.46985,1.41601 -0.20613,0.33833 -3.8349,1.40404 -6.02918,1.77067 -2.72062,0.45457 -5.40166,0.57512 -7.77934,0.3498 z m -11.6258501,-21.79405 -0.016,-13.04953 1.9856601,-0.930599 c 4.49618,-2.107186 7.28885,-2.717743 12.46183,-2.724515 3.48982,-0.0046 4.19933,0.06712 6.63163,0.670098 2.85161,0.70692 4.50004,1.274334 4.50004,1.548979 0,0.0894 -2.13597,1.402085 -4.7466,2.917074 -6.60118,3.830777 -8.65344,5.224207 -10.969,7.447673 -3.76538,3.61562 -6.66243,8.24768 -8.56006,13.6866 -0.4841,1.38749 -0.96821,2.73894 -1.07581,3.00322 -0.1075901,0.26429 -0.2028401,-5.39177 -0.2116601,-12.569 z"
         style="fill:#d86411;fill-opacity:1;stroke-width:0.23854497" />
    </g>
  </g>
</svg>
