<?xml version="1.0" encoding="UTF-8" standalone="no"?>
<!-- Created with Inkscape (http://www.inkscape.org/) -->

<svg
   xmlns="http://www.w3.org/2000/svg"
   width="200mm"
   height="72mm"
   viewBox="0 0 200 72"
   version="1.1"
   id="svg8">
  <defs
     id="defs2" />
  <g
     id="layer1"
     transform="translate(0,-225)">
    <g
       id="g21"
       transform="translate(-6.8035716,152.3244)">
      <path
         id="path39"
         d="m 74.855513,120.65131 c -0.0628,-0.16593 -0.0861,-4.08514 -0.0518,-8.70935 l 0.0623,-8.40767 1.57197,-0.0704 1.57197,-0.0704 0.26175,0.76167 c 0.25325,0.73696 0.27909,0.74902 0.79647,0.3719 1.76558,-1.28696 3.39643,-1.5329 5.00308,-0.75448 2.36956,1.14806 3.6135,5.12048 2.6423,8.438 -0.95244,3.25346 -4.42508,4.89978 -6.76702,3.20814 -1.29092,-0.93247 -1.40943,-0.75159 -1.40943,2.15107 0,1.44275 -0.0647,2.79421 -0.14377,3.00323 -0.18491,0.48883 -3.35604,0.55906 -3.53788,0.0783 z m 7.55194,-8.60075 c 0.34009,-0.27137 0.74332,-0.91651 0.89605,-1.43364 0.23256,-0.78741 0.21075,-1.11808 -0.13424,-2.03441 -0.73398,-1.94961 -2.65519,-2.41664 -4.06367,-0.98785 -0.69567,0.70569 -0.80527,0.97637 -0.80527,1.98873 0,1.15269 0.38456,2.02207 1.17335,2.65262 0.59501,0.47563 2.23523,0.37196 2.93378,-0.18545 z m -47.528539,4.41762 c -0.0868,-0.0881 -0.15789,-3.76404 -0.15789,-8.16877 0,-7.86498 0.008,-8.0086 0.47664,-8.0086 0.39728,0 3.34679,1.62697 12.96426,7.15116 0.57013,0.32749 1.00658,0.75648 1.00658,0.98939 0,0.28845 -2.03577,1.57338 -6.81919,4.30411 -3.75056,2.14109 -6.93019,3.89289 -7.06585,3.89289 -0.13566,0 -0.31771,-0.0721 -0.40455,-0.16018 z m 27.362929,-0.72224 c -1.00276,-0.50132 -1.46798,-1.4303 -1.46798,-2.93135 0,-0.93917 0.13305,-1.35518 0.6219,-1.94453 0.77091,-0.92938 2.058,-1.61069 3.69268,-1.95468 1.71383,-0.36066 2.38331,-0.81696 2.18649,-1.49026 -0.26239,-0.89762 -0.8254,-1.17803 -2.04647,-1.01925 -0.61118,0.0795 -1.48704,0.30378 -1.94636,0.49846 -0.45931,0.19468 -0.88966,0.35396 -0.95633,0.35396 -0.19684,0 -1.07822,-1.86899 -1.07822,-2.28639 0,-0.50682 1.76388,-1.28411 3.59156,-1.58269 2.99896,-0.48993 5.27341,0.6146 5.8665,2.8489 0.16035,0.60408 0.23823,2.66858 0.19885,5.27117 l -0.0647,4.27817 -1.59869,0.071 c -1.3275,0.059 -1.5987,0.007 -1.5987,-0.30787 0,-0.6333 -0.53444,-0.63444 -1.75726,-0.004 -1.34169,0.692 -2.52758,0.75679 -3.64324,0.19904 z m 4.49884,-3.14191 c 0.97036,-1.14613 0.54437,-2.1479 -0.80424,-1.89125 -1.18237,0.22501 -1.76641,0.93129 -1.41573,1.71204 0.20954,0.46652 0.44637,0.59967 1.06667,0.59967 0.46585,0 0.94531,-0.1748 1.1533,-0.42046 z m 24.15929,3.14191 c -1.00276,-0.50132 -1.46798,-1.4303 -1.46798,-2.93135 0,-2.0314 1.48625,-3.30295 4.64599,-3.97483 0.86615,-0.18418 1.66482,-0.48021 1.77482,-0.65784 0.25854,-0.4175 0.0325,-1.19734 -0.46441,-1.60228 -0.46223,-0.37667 -2.17363,-0.21552 -3.44816,0.32469 -0.45931,0.19468 -0.88966,0.35396 -0.95633,0.35396 -0.19684,0 -1.07822,-1.86899 -1.07822,-2.28639 0,-0.50682 1.76388,-1.28411 3.59156,-1.58269 2.99896,-0.48993 5.27341,0.6146 5.8665,2.8489 0.16035,0.60408 0.23823,2.66858 0.19885,5.27117 l -0.0647,4.27817 -1.5987,0.071 c -1.32749,0.059 -1.59869,0.007 -1.59869,-0.30787 0,-0.6333 -0.53444,-0.63444 -1.75726,-0.004 -1.34169,0.692 -2.52758,0.75679 -3.64324,0.19904 z m 4.49883,-3.14191 c 0.95608,-1.12924 0.54019,-2.16106 -0.76437,-1.89639 -1.37382,0.27873 -2.07042,1.31352 -1.36557,2.02854 0.42409,0.4302 1.72201,0.34968 2.12994,-0.13215 z m 10.792057,3.21777 c -2.75526,-1.04677 -4.19987,-3.59662 -3.90522,-6.89298 0.39612,-4.43139 4.40167,-6.7413 8.87679,-5.11903 1.1722,0.42493 1.25746,0.82218 0.52698,2.45528 -0.42714,0.95491 -0.52755,1.03479 -1.11981,0.89094 -0.35783,-0.0869 -1.15421,-0.22106 -1.76973,-0.29812 -1.04591,-0.13093 -1.17374,-0.0847 -1.95396,0.70677 -0.71582,0.72614 -0.83484,1.00613 -0.83484,1.96399 0,2.17124 1.02701,3.17807 3.0041,2.94509 0.62737,-0.0739 1.38016,-0.20901 1.67286,-0.30018 0.4587,-0.14288 0.597,-0.0209 1.00139,0.88316 0.71225,1.5923 0.63487,2.08879 -0.39344,2.52465 -1.23995,0.52555 -4.01114,0.65606 -5.10512,0.24043 z m 20.29981,0.0852 c -0.39487,-0.12441 -0.95328,-0.44861 -1.24091,-0.72043 -1.05983,-1.00162 -1.30866,-1.88633 -1.41902,-5.0452 -0.1143,-3.27203 -0.25352,-3.60387 -1.51197,-3.60387 -0.55858,0 -0.67698,-0.12139 -0.80766,-0.82801 -0.0842,-0.4554 -0.0541,-1.13113 0.067,-1.50161 0.17985,-0.55039 0.39003,-0.69558 1.14898,-0.79374 l 0.92886,-0.12012 0.11842,-1.68181 0.11842,-1.681811 h 1.77633 1.77634 l 0.11842,1.681811 0.11842,1.68181 0.94738,0.064 c 2.02197,0.13667 2.04438,0.15589 1.96556,1.68536 l -0.0708,1.37395 -1.18422,0.20601 c -0.65132,0.1133 -1.31745,0.24505 -1.48028,0.29278 -0.21252,0.0623 -0.29605,0.79585 -0.29605,2.59986 0,3.12193 0.17821,3.39781 2.05075,3.17456 1.19231,-0.14215 1.26715,-0.11787 1.58035,0.51278 0.18082,0.36411 0.3982,0.95593 0.48307,1.31516 0.13327,0.56412 0.0493,0.70826 -0.61619,1.05734 -0.89429,0.46912 -3.52775,0.65989 -4.57119,0.33114 z m 8.22545,-0.16108 c -1.00276,-0.50132 -1.46799,-1.4303 -1.46799,-2.93135 0,-0.93917 0.13305,-1.35518 0.62191,-1.94453 0.7709,-0.92938 2.05799,-1.61069 3.69268,-1.95468 1.71383,-0.36066 2.38331,-0.81696 2.18649,-1.49026 -0.2624,-0.89762 -0.8254,-1.17803 -2.04648,-1.01925 -0.61118,0.0795 -1.49515,0.30722 -1.96438,0.5061 -0.46924,0.19889 -0.93654,0.30934 -1.03845,0.24545 -0.34865,-0.21859 -1.03872,-2.03512 -0.90619,-2.38547 0.23212,-0.61359 2.74559,-1.40249 4.54657,-1.42703 2.03617,-0.0277 3.23455,0.35979 4.01237,1.2975 0.93016,1.12137 1.09621,2.23258 1.02609,6.86686 l -0.0647,4.27817 -1.5987,0.071 c -1.3275,0.059 -1.5987,0.007 -1.5987,-0.30787 0,-0.6333 -0.53444,-0.63444 -1.75726,-0.004 -1.34169,0.692 -2.52758,0.75679 -3.64323,0.19904 z m 4.55258,-3.18072 c 0.24237,-0.27167 0.37829,-0.73784 0.33277,-1.14123 -0.0704,-0.62346 -0.15508,-0.67943 -0.98756,-0.65253 -1.26237,0.0408 -2.00563,0.7924 -1.62394,1.6422 0.34578,0.76984 1.64977,0.85657 2.27873,0.15156 z m 8.97222,3.33953 c -0.69821,-0.28523 -1.33334,-1.57325 -1.14705,-2.32619 0.22964,-0.92816 1.1864,-1.75536 2.03027,-1.75536 1.01124,0 2.12414,1.1329 2.12414,2.16232 0,0.51715 -0.21981,0.98072 -0.69231,1.46003 -0.70393,0.71408 -1.36848,0.84589 -2.31505,0.4592 z m 10.73305,0.01 c -0.37525,-0.12238 -0.94492,-0.47135 -1.26593,-0.77548 -1.09743,-1.03971 -1.31837,-1.81206 -1.42966,-4.99774 -0.11404,-3.26439 -0.25499,-3.60386 -1.49635,-3.60386 -0.53373,0 -0.66233,-0.12855 -0.78121,-0.78084 -0.0783,-0.42946 -0.0563,-1.10519 0.0487,-1.50162 0.16264,-0.61359 0.32957,-0.73863 1.12253,-0.8409 l 0.93148,-0.12013 0.11843,-1.68181 0.11842,-1.681805 h 1.77633 1.77633 l 0.11842,1.681805 0.11842,1.68181 0.94738,0.064 c 2.02087,0.1366 2.04438,0.15669 1.96556,1.67938 l -0.0708,1.36797 -1.42106,0.24624 -1.42107,0.24624 -0.067,2.55774 c -0.0833,3.1798 0.0914,3.46242 1.9993,3.23495 1.19107,-0.142 1.26789,-0.11721 1.58884,0.51279 0.3221,0.63224 0.47298,1.31908 0.41403,1.88479 -0.0749,0.71922 -3.64369,1.29851 -5.09116,0.82643 z m 10.4419,-0.1192 c -2.09549,-0.8172 -3.2575,-2.31369 -3.69473,-4.75822 -0.39492,-2.20797 0.11643,-4.30637 1.41499,-5.80667 1.37947,-1.59378 3.44278,-2.25938 5.59736,-1.80565 2.46062,0.51819 3.9278,2.51813 3.95792,5.3951 l 0.0176,1.68181 -3.58886,0.0662 c -4.13946,0.0764 -4.44609,0.24012 -3.06766,1.63842 0.70051,0.7106 0.9574,0.8167 1.95516,0.80755 0.63178,-0.006 1.57502,-0.16635 2.09607,-0.35678 0.52106,-0.19042 1.07059,-0.34785 1.22117,-0.34983 0.32706,-0.004 1.08287,2.11592 0.87557,2.45618 -0.62757,1.03006 -5.06047,1.70427 -6.7846,1.03189 z m 3.81405,-7.86185 c 0.16372,-1.43822 -1.82333,-2.17347 -3.1066,-1.14951 -0.66047,0.52702 -0.99709,1.28059 -0.75184,1.68313 0.092,0.15096 0.88226,0.22414 1.96925,0.18235 1.77475,-0.0682 1.81728,-0.0844 1.88919,-0.71597 z m 9.4304,7.87738 c -2.24304,-0.8498 -3.66795,-2.86557 -3.87252,-5.47833 -0.32846,-4.19496 2.21374,-7.06303 6.2011,-6.99598 0.96121,0.0162 2.09395,0.20223 2.67415,0.43927 1.16855,0.47738 1.25153,0.86935 0.52698,2.48917 -0.42714,0.95492 -0.52754,1.0348 -1.11981,0.89095 -0.35783,-0.0869 -1.1542,-0.22107 -1.76972,-0.29812 -1.04591,-0.13094 -1.17375,-0.0847 -1.95397,0.70677 -0.71582,0.72614 -0.83483,1.00612 -0.83483,1.96398 0,2.17124 1.027,3.17808 3.00409,2.9451 0.62737,-0.0739 1.38016,-0.20902 1.67287,-0.30019 0.4587,-0.14288 0.59699,-0.0209 1.00139,0.88316 0.71224,1.59231 0.63487,2.0888 -0.39345,2.52465 -1.25735,0.53293 -4.01074,0.65599 -5.13628,0.22957 z m -67.35714,-6.07939 0.0632,-6.19725 h 1.65791 1.65791 v 6.12658 6.12658 l -1.72114,0.0707 -1.72114,0.0707 z m 76.55745,5.88536 c -0.0649,-0.17152 -0.09,-4.31173 -0.0558,-9.20046 l 0.0622,-8.888602 h 1.77633 1.77633 l 0.0662,3.358742 c 0.0364,1.84731 0.16714,3.46109 0.29045,3.58618 0.14105,0.14309 0.38323,0.0815 0.65296,-0.16615 1.8904,-1.73546 4.82359,-1.20957 6.02523,1.08026 0.50974,0.97135 0.54089,1.29953 0.54245,5.71555 l 0.002,4.68503 h -1.77633 -1.77633 l -0.11842,-4.0462 c -0.11393,-3.89266 -0.13964,-4.06362 -0.67756,-4.50484 -0.72615,-0.59562 -1.70602,-0.58374 -2.35389,0.0285 -0.69494,0.65677 -0.75248,1.0108 -0.81897,5.03877 l -0.0575,3.48374 -1.72054,0.0707 c -1.24401,0.0511 -1.75322,-0.0157 -1.83852,-0.24121 z m -75.93747,-14.14819 c -0.80203,-0.30793 -1.25123,-1.39007 -1.04343,-2.513686 0.12919,-0.698596 0.32226,-0.932081 1.01276,-1.224747 1.64304,-0.696402 3.38185,0.259227 3.38185,1.858627 0,1.434856 -1.83262,2.462836 -3.35118,1.879806 z M 51.181684,97.614591 c -0.52106,-0.285823 -3.29214,-1.890047 -6.15795,-3.564944 -5.96053,-3.483574 -8.69179,-4.740962 -12.20446,-5.618566 -4.92442,-1.230312 -8.97606,-1.390789 -13.3582,-0.52909 -1.03304,0.203136 -1.91849,0.328522 -1.96767,0.278635 -0.0492,-0.04989 1.38223,-0.953061 3.1809,-2.007055 1.79867,-1.053993 5.82823,-3.416318 8.95457,-5.249611 3.12634,-1.833292 6.40299,-3.702272 7.28144,-4.153288 1.5773,-0.809817 1.609,-0.815324 2.54534,-0.442216 0.52148,0.207798 2.78699,1.456298 5.03445,2.774443 2.24746,1.318147 6.64421,3.894921 9.77055,5.726166 5.086539,2.979425 5.731049,3.426701 6.129289,4.253557 0.74296,1.542598 0.37257,2.224763 -3.132029,5.768376 -2.85599,2.887775 -3.12299,3.09568 -4.0921,3.186312 -0.75015,0.07015 -1.29866,-0.04671 -1.98413,-0.422719 z"
         style="fill:#1b6dc1;fill-opacity:1;stroke-width:0.23854497" />
      <path
         id="path41"
         d="m 29.377699,136.77593 c -12.22504,-7.12079 -12.98067,-7.56804 -13.47701,-7.97686 -0.45339,-0.37343 -0.43816,-0.38348 0.35527,-0.23449 0.45592,0.0856 1.6283,0.30582 2.60528,0.48937 2.3754,0.44626 7.94639,0.4421 10.48981,-0.008 4.70768,-0.83278 7.23346,-1.91329 15.034249,-6.43152 3.16116,-1.83095 6.11212,-3.48352 6.55769,-3.67238 1.53758,-0.6517 2.09325,-0.33151 5.60237,3.22819 3.32349,3.3714 3.64504,3.88726 3.35817,5.38742 -0.20424,1.0681 -1.05817,1.72083 -6.10778,4.66868 -14.86244,8.67634 -15.3559,8.95057 -16.10607,8.95057 -0.54769,0 -2.838519,-1.21298 -8.311979,-4.40114 z"
         style="fill:#1d951a;fill-opacity:1;stroke-width:0.23854497"/>
      <path
         id="path43"
         d="m 21.455187,127.69772 c -1.08716,-0.10303 -2.73915,-0.36322 -3.67108,-0.57821 -1.98274,-0.45739 -6.39405,-2.1606 -6.76256,-2.61103 -0.35066,-0.42861 0.62303,-5.04861 1.74927,-8.29996 1.0749,-3.10313 2.14978,-5.30582 3.87763,-7.94617 1.38516,-2.11671 4.85634,-6.0071 5.35979,-6.0071 0.19058,0 0.33564,0.66795 0.43046,1.98213 0.17221,2.38678 1.28979,6.52974 2.40383,8.9112 1.89121,4.04278 5.35342,8.30229 8.95133,11.01266 0.87933,0.66242 1.54076,1.29962 1.46985,1.41601 -0.20613,0.33833 -3.8349,1.40404 -6.02918,1.77067 -2.72062,0.45457 -5.40166,0.57512 -7.77934,0.3498 z m -11.6258501,-21.79405 -0.016,-13.04953 1.9856601,-0.930599 c 4.49618,-2.107186 7.28885,-2.717743 12.46183,-2.724515 3.48982,-0.0046 4.19933,0.06712 6.63163,0.670098 2.85161,0.70692 4.50004,1.274334 4.50004,1.548979 0,0.0894 -2.13597,1.402085 -4.7466,2.917074 -6.60118,3.830777 -8.65344,5.224207 -10.969,7.447673 -3.76538,3.61562 -6.66243,8.24768 -8.56006,13.6866 -0.4841,1.38749 -0.96821,2.73894 -1.07581,3.00322 -0.1075901,0.26429 -0.2028401,-5.39177 -0.2116601,-12.569 z"
         style="fill:#d86411;fill-opacity:1;stroke-width:0.23854497" />
    </g>
  </g>
</svg>
